<svg id="Capa_1" data-name="Capa 1" xmlns="http://www.w3.org/2000/svg" viewBox="0 0 412 412"><defs><style>.cls-1{fill:#ff9b03;}.cls-2{fill:#ffc50d;}.cls-3{fill:#daa811;}.cls-4{fill:#fff;}</style></defs><title>clima</title><polygon class="cls-1" points="58 59 147 59 206 0 265 59 353 59 353 145 412 206 352 266 353 353 267 353 206 412 145 353 58 354 58 266 0 206 59 149 58 59"/><circle class="cls-2" cx="205.5" cy="205.5" r="156.5"/><path class="cls-3" d="M559,285l32,29h48l29,30s2,13-5,25-29,59-29,59-15,31-66,51c0,0-37,14-59,11l-59-59,11-36Z" transform="translate(-306 -128)"/><path class="cls-4" d="M450,431s-19-28-10-54c0,0,8-33,38-41,0,0-14-48,34-64s65,32,65,32,30-26,65,11c0,0,20,19,13,50a42.89,42.89,0,0,1,40,25c13,27,0,41,0,41Z" transform="translate(-306 -128)"/></svg>