<svg id="Capa_1" data-name="Capa 1" xmlns="http://www.w3.org/2000/svg" viewBox="0 0 493.83 190.39"><defs><style>.cls-1,.cls-2{font-size:172px;font-family:Righteous-Regular, Righteous;}.cls-1,.cls-3{fill:#3264bf;}.cls-2,.cls-5{fill:#5393ff;}.cls-4{fill:#ef0606;}</style></defs><text class="cls-1" transform="translate(0 146.22)">M</text><text class="cls-2" transform="translate(383.39 146.22)">P</text><path class="cls-3" d="M357.05,195.33a49.67,49.67,0,0,0-32-11c-2.46.06-20.67.85-34,15a49,49,0,0,0-13,32v73h24v-24h48v24h25v-73C374.88,228.11,373.52,208.81,357.05,195.33Zm-17,45.89-13.51,21.11L313,241.22a18,18,0,1,1,27,0Z" transform="translate(-7.79 -157.94)"/><circle class="cls-4" cx="319.21" cy="71.06" r="5"/><path class="cls-5" d="M243.92,195.33a49.67,49.67,0,0,0-32-11c-2.46.06-20.67.85-34,15a49,49,0,0,0-13,32v73h24v-24h48v24h25v-73C261.75,228.11,260.39,208.81,243.92,195.33Zm-17,45.89-13.51,21.11-13.53-21.14a18,18,0,1,1,27,0Z" transform="translate(-7.79 -157.94)"/><circle class="cls-4" cx="205.21" cy="71.06" r="5"/></svg>